# xmcd
# 
# Track frame offsets:
#     150
#     25702
#     43825
#     65617
#     85127
#     103002
#     126280
#     146372
#     163587
#     185337
#     201305
#     221185
#     241992
#     261592
#     283530
# 
# Disc length: 4061
# 
# Revision: 4
# Processed by: cddbd v1.5.2PL0 Copyright (c) Steve Scherf et al.
# Submitted via: fre:ac v1.1beta1pre3
# 
DISCID=e40fdb0f
DTITLE=Rod Stewart - If We Fall In Love Tonight
DYEAR=1996
DGENRE=Rock
TTITLE0=If We Fall In Love Tonight
TTITLE1=For The First Time
TTITLE2=When I Need You
TTITLE3=So Far Away
TTITLE4=Have I Told You Lately ( Studio Version Remix )
TTITLE5=My Heart Can't Tell You No
TTITLE6=You're In My Heart
TTITLE7=First Cut Is The Deepest
TTITLE8=I Don't Want To Talk About It
TTITLE9=Tonight's The Night ( Gonna Be Alright )
TTITLE10=Sometimes When We Touch
TTITLE11=Downtown Train
TTITLE12=Broken Arrow
TTITLE13=Forever Young ( 1996 )
TTITLE14=All For Love Featuring Bryan Adams and Sting
EXTD=YEAR: 1996
EXTT0=
EXTT1=
EXTT2=
EXTT3=
EXTT4=
EXTT5=
EXTT6=
EXTT7=
EXTT8=
EXTT9=
EXTT10=
EXTT11=
EXTT12=
EXTT13=
EXTT14=
PLAYORDER=
